# xmcd
#
# Track frame offsets: 
#        150
#        14017
#        26057
#        33957
#        45040
#        57472
#        67287
#        78212
#        92790
#        116527
#        126675
#        139650
#
# Disc length: 2092 seconds
#
# Revision: 2
# Processed by: cddbd v1.5.2PL0 Copyright (c) Steve Scherf et al.
# Submitted via: ExactAudioCopy v0.99pb5
#
DISCID=a6082a0c
DTITLE=Jimmy Dean - Jimmy Dean's Greatest Hits
DYEAR=1966
DGENRE=Country
TTITLE0=Big Bad John
TTITLE1=The Cajun Queen
TTITLE2=Harvest of Sunshine
TTITLE3=Little Black Book
TTITLE4=Steel Men
TTITLE5=The First Thing Ev'ry Morning (and the Last Thing Ev'ry Night)
TTITLE6=Sam Hill
TTITLE7=P.T. 109
TTITLE8=To a Sleeping Beauty (Background Music: ''Memories'')
TTITLE9=The Farmer and the Lord
TTITLE10=I Won't Go Huntin' with You Jake (but I'll Go Chasin' Wimmin)
TTITLE11=Dear Ivan (Bonus Track)
EXTD=
EXTT0=
EXTT1=
EXTT2=
EXTT3=
EXTT4=
EXTT5=
EXTT6=
EXTT7=
EXTT8=
EXTT9=
EXTT10=
EXTT11=
PLAYORDER=
